<?xml version="1.0" encoding="UTF-8"?>
<!DOCTYPE svg PUBLIC "-//W3C//DTD SVG 1.1//EN" "http://www.w3.org/Graphics/SVG/1.1/DTD/svg11.dtd">
<svg xmlns="http://www.w3.org/2000/svg" version="1.1" width="1352px" height="762px" style="shape-rendering:geometricPrecision; text-rendering:geometricPrecision; image-rendering:optimizeQuality; fill-rule:evenodd; clip-rule:evenodd" xmlns:xlink="http://www.w3.org/1999/xlink">
<g><path style="opacity:1" fill="#0d0d0d" d="M -0.5,-0.5 C 450.167,-0.5 900.833,-0.5 1351.5,-0.5C 1351.5,253.5 1351.5,507.5 1351.5,761.5C 900.833,761.5 450.167,761.5 -0.5,761.5C -0.5,507.5 -0.5,253.5 -0.5,-0.5 Z"/></g>
<g><path style="opacity:1" fill="#dedede" d="M 5.5,3.5 C 83.8333,3.5 162.167,3.5 240.5,3.5C 240.672,4.49162 240.338,5.15829 239.5,5.5C 161.5,4.83333 83.5,4.16667 5.5,3.5 Z"/></g>
<g><path style="opacity:1" fill="#fdfdfd" d="M 5.5,3.5 C 83.5,4.16667 161.5,4.83333 239.5,5.5C 197.117,78.0278 135.783,126.694 55.5,151.5C 38.7327,155.853 21.7327,159.187 4.5,161.5C 3.83336,135.335 3.50002,109.002 3.5,82.5C 3.50019,55.8248 4.16686,29.4914 5.5,3.5 Z"/></g>
<g><path style="opacity:1" fill="#fdfdfd" d="M 242.5,3.5 C 610.5,3.5 978.5,3.5 1346.5,3.5C 1346.5,255.167 1346.5,506.833 1346.5,758.5C 1118.67,758.833 890.999,758.5 663.5,757.5C 608.474,679.866 534.141,631.532 440.5,612.5C 428.797,609.702 416.797,608.035 404.5,607.5C 402.052,606.527 399.385,606.194 396.5,606.5C 380.833,606.5 365.167,606.5 349.5,606.5C 336.553,607.065 323.886,608.732 311.5,611.5C 221.331,628.493 148.165,673.16 92,745.5C 88.9178,749.734 86.0845,754.067 83.5,758.5C 56.8333,758.5 30.1667,758.5 3.5,758.5C 3.16695,559.999 3.50028,361.666 4.5,163.5C 22.3779,161.671 39.7112,158.004 56.5,152.5C 126.916,131.053 183.416,90.3865 226,30.5C 232.013,21.8058 237.513,12.8058 242.5,3.5 Z"/></g>
<g><path style="opacity:1" fill="#0e0e0e" d="M 1043.5,301.5 C 1035.99,300.18 1028.32,300.18 1020.5,301.5C 1020.62,302.107 1020.96,302.44 1021.5,302.5C 1027.2,323.096 1029.7,344.096 1029,365.5C 1038.3,370.422 1043.97,378.089 1046,388.5C 1046.67,402.833 1046.67,417.167 1046,431.5C 1041.65,449.68 1030.15,459.347 1011.5,460.5C 1011.67,469.506 1011.5,478.506 1011,487.5C 1009.5,497 1004,502.5 994.5,504C 991.55,508.618 988.216,512.952 984.5,517C 963.836,517.5 943.169,517.667 922.5,517.5C 922.5,520.167 922.5,522.833 922.5,525.5C 931.173,525.334 939.84,525.5 948.5,526C 967.333,550.167 986.167,574.333 1005,598.5C 1005.44,606.57 1002.77,607.57 997,601.5C 980.731,579.947 964.231,558.614 947.5,537.5C 935.118,559.762 923.118,582.262 911.5,605C 905.92,606.261 904.087,604.094 906,598.5C 917.435,577.624 928.269,556.624 938.5,535.5C 939.338,535.158 939.672,534.492 939.5,533.5C 913.005,532.502 886.339,532.169 859.5,532.5C 859.263,533.791 859.596,534.791 860.5,535.5C 871.371,556.906 882.538,578.239 894,599.5C 894.333,605.5 892,606.833 887,603.5C 875.858,581.215 864.191,559.215 852,537.5C 834.118,559.714 816.618,582.214 799.5,605C 796.143,606.141 794.143,604.975 793.5,601.5C 794.361,598.473 795.861,595.806 798,593.5C 815.621,571.09 833.121,548.59 850.5,526C 859.16,525.5 867.827,525.334 876.5,525.5C 876.5,522.833 876.5,520.167 876.5,517.5C 855.408,517.977 834.408,517.477 813.5,516C 810.963,513.094 808.796,509.927 807,506.5C 799.286,504.464 793.619,499.797 790,492.5C 788.597,481.898 788.097,471.231 788.5,460.5C 768.92,459.759 757.087,449.759 753,430.5C 752.087,415.787 752.42,401.12 754,386.5C 756.697,377.642 761.863,370.642 769.5,365.5C 769.046,330.986 776.88,298.652 793,268.5C 806.427,248.227 824.593,234.227 847.5,226.5C 850.228,226.829 852.562,226.163 854.5,224.5C 857.152,224.59 859.485,223.924 861.5,222.5C 862.167,222.5 862.833,222.5 863.5,222.5C 867.078,222.451 870.411,221.785 873.5,220.5C 874.167,220.5 874.833,220.5 875.5,220.5C 889.478,219.612 903.478,219.278 917.5,219.5C 921.295,220.617 925.295,221.283 929.5,221.5C 932.627,222.581 935.96,223.247 939.5,223.5C 956.298,227.232 971.632,234.232 985.5,244.5C 985.56,245.043 985.893,245.376 986.5,245.5C 987.5,205.506 987.833,165.506 987.5,125.5C 989.429,109.784 998.096,100.284 1013.5,97C 1087.17,96.3333 1160.83,96.3333 1234.5,97C 1247.61,99.4392 1256.44,106.939 1261,119.5C 1261.67,171.833 1261.67,224.167 1261,276.5C 1257.76,289.401 1249.6,297.234 1236.5,300C 1189.83,300.333 1143.17,300.667 1096.5,301C 1080.87,314.967 1065.53,329.3 1050.5,344C 1047.97,344.896 1045.81,344.396 1044,342.5C 1043.5,328.837 1043.33,315.171 1043.5,301.5 Z"/></g>
<g><path style="opacity:1" fill="#373737" d="M 240.5,3.5 C 241.167,3.5 241.833,3.5 242.5,3.5C 237.513,12.8058 232.013,21.8058 226,30.5C 183.416,90.3865 126.916,131.053 56.5,152.5C 55.8333,152.5 55.5,152.167 55.5,151.5C 135.783,126.694 197.117,78.0278 239.5,5.5C 240.338,5.15829 240.672,4.49162 240.5,3.5 Z"/></g>
<g><path style="opacity:1" fill="#fefefe" d="M 1053.5,330.5 C 1052.83,319.167 1052.17,307.833 1051.5,296.5C 1051.43,294.589 1050.43,293.422 1048.5,293C 1038.15,292.832 1027.82,292.332 1017.5,291.5C 1012.62,278.73 1005.95,267.063 997.5,256.5C 996.176,210.186 996.176,163.852 997.5,117.5C 1000.78,111.401 1005.78,107.235 1012.5,105C 1086.83,104.333 1161.17,104.333 1235.5,105C 1244.26,107.43 1250.1,112.93 1253,121.5C 1253.67,172.5 1253.67,223.5 1253,274.5C 1250.88,282.581 1246.04,288.414 1238.5,292C 1189.83,292.167 1141.16,292.667 1092.5,293.5C 1079.18,305.49 1066.18,317.823 1053.5,330.5 Z"/></g>
<g><path style="opacity:1" fill="#aeafaf" d="M 987.5,125.5 C 987.833,165.506 987.5,205.506 986.5,245.5C 985.893,245.376 985.56,245.043 985.5,244.5C 986.167,204.833 986.833,165.167 987.5,125.5 Z"/></g>
<g><path style="opacity:1" fill="#5b5b5b" d="M 55.5,151.5 C 55.5,152.167 55.8333,152.5 56.5,152.5C 39.7112,158.004 22.3779,161.671 4.5,163.5C 4.5,162.833 4.5,162.167 4.5,161.5C 21.7327,159.187 38.7327,155.853 55.5,151.5 Z"/></g>
<g><path style="opacity:1" fill="#e5e5e5" d="M 997.5,117.5 C 996.176,163.852 996.176,210.186 997.5,256.5C 996.883,256.389 996.383,256.056 996,255.5C 995.333,210.167 995.333,164.833 996,119.5C 996.278,118.584 996.778,117.918 997.5,117.5 Z"/></g>
<g><path style="opacity:1" fill="#302f2f" d="M 316.5,210.5 C 316.167,210.5 315.833,210.5 315.5,210.5C 315.5,208.167 315.5,205.833 315.5,203.5C 295.833,203.5 276.167,203.5 256.5,203.5C 256.5,205.833 256.5,208.167 256.5,210.5C 256.167,210.5 255.833,210.5 255.5,210.5C 255.5,207.833 255.5,205.167 255.5,202.5C 275.833,202.5 296.167,202.5 316.5,202.5C 316.5,205.167 316.5,207.833 316.5,210.5 Z"/></g>
<g><path style="opacity:1" fill="#121111" d="M 315.5,210.5 C 307.5,210.5 299.5,210.5 291.5,210.5C 291.335,213.518 291.502,216.518 292,219.5C 292.278,220.416 292.778,221.082 293.5,221.5C 295.467,226.644 298.467,231.144 302.5,235C 307.542,238.521 312.875,241.521 318.5,244C 317.167,246 315.833,248 314.5,250C 312.833,250.667 311.167,250.667 309.5,250C 299.765,244.932 291.932,237.766 286,228.5C 279.965,241.372 270.132,249.706 256.5,253.5C 255.871,250.625 255.038,247.958 254,245.5C 267.964,240.376 276.797,230.709 280.5,216.5C 281.461,214.735 281.795,212.735 281.5,210.5C 273.167,210.5 264.833,210.5 256.5,210.5C 256.5,208.167 256.5,205.833 256.5,203.5C 276.167,203.5 295.833,203.5 315.5,203.5C 315.5,205.833 315.5,208.167 315.5,210.5 Z"/></g>
<g><path style="opacity:1" fill="#141413" d="M 595.5,203.5 C 611.5,203.5 627.5,203.5 643.5,203.5C 643.5,206.167 643.5,208.833 643.5,211.5C 630.833,211.5 618.167,211.5 605.5,211.5C 605.5,221.833 605.5,232.167 605.5,242.5C 621.962,243.037 638.295,242.037 654.5,239.5C 654.5,242.167 654.5,244.833 654.5,247.5C 645.959,249.541 637.292,250.541 628.5,250.5C 617.5,250.5 606.5,250.5 595.5,250.5C 595.5,234.833 595.5,219.167 595.5,203.5 Z"/></g>
<g><path style="opacity:1" fill="#141514" d="M 407.5,255.5 C 400.378,255.825 393.378,255.159 386.5,253.5C 373.29,246.727 368.457,236.06 372,221.5C 379.725,207.558 391.559,202.058 407.5,205C 423.996,209.163 431.162,219.663 429,236.5C 425.514,247.137 418.348,253.47 407.5,255.5 Z"/></g>
<g><path style="opacity:1" fill="#121110" d="M 178.5,292.5 C 178.5,293.833 178.5,295.167 178.5,296.5C 167.833,296.5 157.167,296.5 146.5,296.5C 146.706,293.505 146.04,290.838 144.5,288.5C 144.768,286.901 144.434,285.568 143.5,284.5C 135.016,283.507 126.349,283.174 117.5,283.5C 116.5,288.167 115.5,292.833 114.5,297.5C 103.448,298.143 92.7809,297.476 82.5,295.5C 84.6098,291.498 85.9431,287.165 86.5,282.5C 86.8333,281.167 87.1667,279.833 87.5,278.5C 89.6545,276.383 90.6545,273.716 90.5,270.5C 97.0293,250.079 103.863,229.746 111,209.5C 124.091,208.345 137.258,208.178 150.5,209C 159.735,236.871 169.068,264.704 178.5,292.5 Z"/></g>
<g><path style="opacity:1" fill="#100f0d" d="M 217.5,209.5 C 217.5,238.5 217.5,267.5 217.5,296.5C 207.167,296.5 196.833,296.5 186.5,296.5C 186.5,267.5 186.5,238.5 186.5,209.5C 196.833,209.5 207.167,209.5 217.5,209.5 Z"/></g>
<g><path style="opacity:1" fill="#b7b7b5" d="M 255.5,210.5 C 255.833,210.5 256.167,210.5 256.5,210.5C 264.833,210.5 273.167,210.5 281.5,210.5C 281.795,212.735 281.461,214.735 280.5,216.5C 280.5,214.833 280.5,213.167 280.5,211.5C 271.983,211.826 263.65,211.493 255.5,210.5 Z"/></g>
<g><path style="opacity:1" fill="#c5c4c3" d="M 315.5,210.5 C 315.833,210.5 316.167,210.5 316.5,210.5C 308.684,211.492 300.684,211.826 292.5,211.5C 292.46,214.881 292.793,218.214 293.5,221.5C 292.778,221.082 292.278,220.416 292,219.5C 291.502,216.518 291.335,213.518 291.5,210.5C 299.5,210.5 307.5,210.5 315.5,210.5 Z"/></g>
<g><path style="opacity:1" fill="#f9f9f8" d="M 393.5,213.5 C 404.22,211.62 412.72,214.953 419,223.5C 421.024,241.762 412.858,249.596 394.5,247C 383.769,243.387 379.269,235.887 381,224.5C 383.708,219.079 387.875,215.413 393.5,213.5 Z"/></g>
<g><path style="opacity:1" fill="#0e0f0d" d="M 444.5,196.5 C 447.5,196.5 450.5,196.5 453.5,196.5C 453.5,233.167 453.5,269.833 453.5,306.5C 450.5,306.5 447.5,306.5 444.5,306.5C 444.5,269.833 444.5,233.167 444.5,196.5 Z"/></g>
<g><path style="opacity:1" fill="#636361" d="M 332.5,196.5 C 332.5,215.167 332.5,233.833 332.5,252.5C 335.5,252.5 338.5,252.5 341.5,252.5C 341.5,233.833 341.5,215.167 341.5,196.5C 342.497,215.326 342.83,234.326 342.5,253.5C 338.833,253.5 335.167,253.5 331.5,253.5C 331.17,234.326 331.503,215.326 332.5,196.5 Z"/></g>
<g><path style="opacity:1" fill="#0f0f0e" d="M 332.5,196.5 C 335.5,196.5 338.5,196.5 341.5,196.5C 341.5,215.167 341.5,233.833 341.5,252.5C 338.5,252.5 335.5,252.5 332.5,252.5C 332.5,233.833 332.5,215.167 332.5,196.5 Z"/></g>
<g><path style="opacity:1" fill="#b4b4b4" d="M 917.5,219.5 C 903.478,219.278 889.478,219.612 875.5,220.5C 876.952,219.698 878.618,219.198 880.5,219C 893.007,218.173 905.34,218.34 917.5,219.5 Z"/></g>
<g><path style="opacity:1" fill="#141413" d="M 512.5,199.5 C 524.951,198.917 537.284,199.751 549.5,202C 556.162,204.331 561.329,208.497 565,214.5C 566.744,225.754 562.244,233.254 551.5,237C 547.339,238.737 543.005,239.737 538.5,240C 529.5,240.667 520.5,240.667 511.5,240C 501.91,238.295 494.41,233.462 489,225.5C 486.656,217.036 489.156,210.536 496.5,206C 501.561,202.93 506.895,200.763 512.5,199.5 Z"/></g>
<g><path style="opacity:1" fill="#f7f7f7" d="M 518.5,206.5 C 528.061,205.926 537.394,207.092 546.5,210C 549.249,211.123 551.749,212.623 554,214.5C 557.226,221.219 555.393,226.052 548.5,229C 535.409,234.16 522.076,234.827 508.5,231C 497.838,226.743 496.171,220.41 503.5,212C 508.434,209.637 513.434,207.804 518.5,206.5 Z"/></g>
<g><path style="opacity:1" fill="#929292" d="M 873.5,220.5 C 870.411,221.785 867.078,222.451 863.5,222.5C 866.507,220.825 869.84,220.159 873.5,220.5 Z"/></g>
<g><path style="opacity:1" fill="#929292" d="M 929.5,221.5 C 932.187,221.336 934.854,221.503 937.5,222C 938.416,222.278 939.082,222.778 939.5,223.5C 935.96,223.247 932.627,222.581 929.5,221.5 Z"/></g>
<g><path style="opacity:1" fill="#7f7f7f" d="M 861.5,222.5 C 859.485,223.924 857.152,224.59 854.5,224.5C 856.515,223.076 858.848,222.41 861.5,222.5 Z"/></g>
<g><path style="opacity:1" fill="#565656" d="M 854.5,224.5 C 852.562,226.163 850.228,226.829 847.5,226.5C 849.599,225.388 851.933,224.721 854.5,224.5 Z"/></g>
<g><path style="opacity:1" fill="#f3f3f3" d="M 795.5,301.5 C 793.184,305.794 791.85,310.46 791.5,315.5C 790.588,320.395 789.588,325.395 788.5,330.5C 787.501,370.663 787.168,410.997 787.5,451.5C 785.833,451.5 784.167,451.5 782.5,451.5C 778.534,451.349 775.2,449.849 772.5,447C 780.102,429.589 782.602,411.422 780,392.5C 779.082,385.579 777.248,378.912 774.5,372.5C 775.76,371.618 776.926,370.618 778,369.5C 777.844,342.826 781.844,316.826 790,291.5C 804.047,258.052 828.881,237.718 864.5,230.5C 868.79,230.802 872.79,230.136 876.5,228.5C 894.146,227.192 911.812,227.359 929.5,229C 970.108,235.634 997.275,258.134 1011,296.5C 1018.15,319.947 1021.48,343.947 1021,368.5C 1021.81,370.306 1022.98,371.806 1024.5,373C 1015.8,398.071 1016.8,422.737 1027.5,447C 1024.53,449.223 1021.2,450.89 1017.5,452C 1015.53,452.495 1013.53,452.662 1011.5,452.5C 1011.67,412.499 1011.5,372.499 1011,332.5C 1003.99,275.153 971.82,242.653 914.5,235C 879.799,231.087 848.799,239.754 821.5,261C 809.931,272.637 801.265,286.137 795.5,301.5 Z"/></g>
<g><path style="opacity:1" fill="#60615f" d="M 691.5,222.5 C 692.473,224.948 692.806,227.615 692.5,230.5C 686.833,230.5 681.167,230.5 675.5,230.5C 680.64,229.512 685.974,229.179 691.5,229.5C 691.5,227.167 691.5,224.833 691.5,222.5 Z"/></g>
<g><path style="opacity:1" fill="#ababaa" d="M 876.5,228.5 C 872.79,230.136 868.79,230.802 864.5,230.5C 868.21,228.864 872.21,228.198 876.5,228.5 Z"/></g>
<g><path style="opacity:1" fill="#474746" d="M 675.5,196.5 C 672.5,196.5 669.5,196.5 666.5,196.5C 666.5,215.833 666.5,235.167 666.5,254.5C 669.5,254.5 672.5,254.5 675.5,254.5C 672.375,255.479 669.042,255.813 665.5,255.5C 665.5,235.5 665.5,215.5 665.5,195.5C 669.042,195.187 672.375,195.521 675.5,196.5 Z"/></g>
<g><path style="opacity:1" fill="#0d0e0c" d="M 675.5,196.5 C 675.5,205.167 675.5,213.833 675.5,222.5C 680.833,222.5 686.167,222.5 691.5,222.5C 691.5,224.833 691.5,227.167 691.5,229.5C 685.974,229.179 680.64,229.512 675.5,230.5C 675.5,238.5 675.5,246.5 675.5,254.5C 672.5,254.5 669.5,254.5 666.5,254.5C 666.5,235.167 666.5,215.833 666.5,196.5C 669.5,196.5 672.5,196.5 675.5,196.5 Z"/></g>
<g><path style="opacity:1" fill="#fdfdfd" d="M 998.5,309.5 C 998.448,311.903 998.781,314.236 999.5,316.5C 976.833,317.833 954.167,317.833 931.5,316.5C 928.514,312.011 925.18,307.845 921.5,304C 906.833,303.333 892.167,303.333 877.5,304C 874.036,308.441 870.702,312.941 867.5,317.5C 845.831,317.333 824.164,317.5 802.5,318C 801.944,318.383 801.611,318.883 801.5,319.5C 799.682,321.078 798.682,320.578 798.5,318C 806.943,279.893 829.943,255.893 867.5,246C 895.144,239.937 922.144,241.937 948.5,252C 974.294,263.29 990.961,282.457 998.5,309.5 Z"/></g>
<g><path style="opacity:1" fill="#f0f0ee" d="M 138.5,262.5 C 133.056,263.108 128.056,262.442 123.5,260.5C 125.07,250.883 127.57,241.55 131,232.5C 133.608,242.489 136.108,252.489 138.5,262.5 Z"/></g>
<g><path style="opacity:1" fill="#8c8b8a" d="M 217.5,209.5 C 207.167,209.5 196.833,209.5 186.5,209.5C 186.5,238.5 186.5,267.5 186.5,296.5C 186.5,296.833 186.5,297.167 186.5,297.5C 185.502,268.005 185.169,238.338 185.5,208.5C 196.346,208.172 207.013,208.506 217.5,209.5 Z"/></g>
<g><path style="opacity:1" fill="#70706f" d="M 595.5,203.5 C 595.5,219.167 595.5,234.833 595.5,250.5C 606.5,250.5 617.5,250.5 628.5,250.5C 617.346,251.495 606.012,251.828 594.5,251.5C 594.17,235.325 594.504,219.325 595.5,203.5 Z"/></g>
<g><path style="opacity:1" fill="#0f0f0e" d="M 477.5,250.5 C 510.5,250.5 543.5,250.5 576.5,250.5C 576.5,252.833 576.5,255.167 576.5,257.5C 543.5,257.5 510.5,257.5 477.5,257.5C 477.5,255.167 477.5,252.833 477.5,250.5 Z"/></g>
<g><path style="opacity:1" fill="#7e7e7c" d="M 444.5,196.5 C 447.625,195.521 450.958,195.187 454.5,195.5C 454.832,232.67 454.498,269.67 453.5,306.5C 453.5,269.833 453.5,233.167 453.5,196.5C 450.5,196.5 447.5,196.5 444.5,196.5 Z"/></g>
<g><path style="opacity:1" fill="#6d6d6c" d="M 386.5,253.5 C 393.378,255.159 400.378,255.825 407.5,255.5C 402.684,256.65 397.684,256.816 392.5,256C 390.277,255.434 388.277,254.6 386.5,253.5 Z"/></g>
<g><path style="opacity:1" fill="#666665" d="M 341.5,259.5 C 318.167,259.5 294.833,259.5 271.5,259.5C 271.5,261.833 271.5,264.167 271.5,266.5C 271.167,266.5 270.833,266.5 270.5,266.5C 270.5,263.833 270.5,261.167 270.5,258.5C 294.339,258.169 318.006,258.502 341.5,259.5 Z"/></g>
<g><path style="opacity:1" fill="#0e0e0d" d="M 341.5,259.5 C 341.5,267.833 341.5,276.167 341.5,284.5C 320.993,284.17 300.66,284.503 280.5,285.5C 280.5,289.5 280.5,293.5 280.5,297.5C 302.167,297.5 323.833,297.5 345.5,297.5C 345.5,299.833 345.5,302.167 345.5,304.5C 320.833,304.5 296.167,304.5 271.5,304.5C 271.5,295.833 271.5,287.167 271.5,278.5C 291.674,278.83 311.674,278.497 331.5,277.5C 332.482,274.038 332.815,270.371 332.5,266.5C 312.167,266.5 291.833,266.5 271.5,266.5C 271.5,264.167 271.5,261.833 271.5,259.5C 294.833,259.5 318.167,259.5 341.5,259.5 Z"/></g>
<g><path style="opacity:1" fill="#50504f" d="M 675.5,261.5 C 672.5,261.5 669.5,261.5 666.5,261.5C 666.818,266.032 666.485,270.366 665.5,274.5C 665.5,269.833 665.5,265.167 665.5,260.5C 669.042,260.187 672.375,260.521 675.5,261.5 Z"/></g>
<g><path style="opacity:1" fill="#807e7d" d="M 123.5,260.5 C 128.056,262.442 133.056,263.108 138.5,262.5C 133.36,263.488 128.026,263.821 122.5,263.5C 122.263,262.209 122.596,261.209 123.5,260.5 Z"/></g>
<g><path style="opacity:1" fill="#121211" d="M 606.5,261.5 C 609.5,261.5 612.5,261.5 615.5,261.5C 615.182,266.032 615.515,270.366 616.5,274.5C 632.833,274.5 649.167,274.5 665.5,274.5C 666.485,270.366 666.818,266.032 666.5,261.5C 669.5,261.5 672.5,261.5 675.5,261.5C 675.5,275.833 675.5,290.167 675.5,304.5C 652.5,304.5 629.5,304.5 606.5,304.5C 606.5,290.167 606.5,275.833 606.5,261.5 Z"/></g>
<g><path style="opacity:1" fill="#b1b1b1" d="M 270.5,266.5 C 270.833,266.5 271.167,266.5 271.5,266.5C 291.833,266.5 312.167,266.5 332.5,266.5C 332.815,270.371 332.482,274.038 331.5,277.5C 331.5,274.167 331.5,270.833 331.5,267.5C 310.993,267.83 290.66,267.497 270.5,266.5 Z"/></g>
<g><path style="opacity:1" fill="#6a6a68" d="M 606.5,261.5 C 609.625,260.521 612.958,260.187 616.5,260.5C 616.5,265.167 616.5,269.833 616.5,274.5C 615.515,270.366 615.182,266.032 615.5,261.5C 612.5,261.5 609.5,261.5 606.5,261.5 Z"/></g>
<g><path style="opacity:1" fill="#5d5e5e" d="M 90.5,270.5 C 90.6545,273.716 89.6545,276.383 87.5,278.5C 88.129,275.603 89.129,272.936 90.5,270.5 Z"/></g>
<g><path style="opacity:1" fill="#171717" d="M 429.5,270.5 C 432.167,270.5 434.833,270.5 437.5,270.5C 437.5,273.167 437.5,275.833 437.5,278.5C 413.917,281.199 390.25,282.532 366.5,282.5C 366.296,279.482 365.963,276.482 365.5,273.5C 380.17,273.667 394.837,273.5 409.5,273C 416.354,272.485 423.02,271.652 429.5,270.5 Z"/></g>
<g><path style="opacity:1" fill="#d9d9d9" d="M 616.5,283.5 C 616.5,283.167 616.5,282.833 616.5,282.5C 632.833,282.5 649.167,282.5 665.5,282.5C 665.5,286.833 665.5,291.167 665.5,295.5C 665.167,295.5 664.833,295.5 664.5,295.5C 664.5,291.5 664.5,287.5 664.5,283.5C 648.5,283.5 632.5,283.5 616.5,283.5 Z"/></g>
<g><path style="opacity:1" fill="#fefefd" d="M 616.5,283.5 C 632.5,283.5 648.5,283.5 664.5,283.5C 664.5,287.5 664.5,291.5 664.5,295.5C 648.5,295.5 632.5,295.5 616.5,295.5C 616.5,291.5 616.5,287.5 616.5,283.5 Z"/></g>
<g><path style="opacity:1" fill="#646463" d="M 341.5,259.5 C 342.493,267.984 342.826,276.651 342.5,285.5C 322.167,285.5 301.833,285.5 281.5,285.5C 281.167,285.5 280.833,285.5 280.5,285.5C 300.66,284.503 320.993,284.17 341.5,284.5C 341.5,276.167 341.5,267.833 341.5,259.5 Z"/></g>
<g><path style="opacity:1" fill="#595959" d="M 86.5,282.5 C 85.9431,287.165 84.6098,291.498 82.5,295.5C 82.5,294.833 82.5,294.167 82.5,293.5C 83.4624,289.605 84.7957,285.939 86.5,282.5 Z"/></g>
<g><path style="opacity:1" fill="#888887" d="M 144.5,288.5 C 146.04,290.838 146.706,293.505 146.5,296.5C 145.232,294.095 144.565,291.428 144.5,288.5 Z"/></g>
<g><path style="opacity:1" fill="#141414" d="M 512.5,267.5 C 521.506,267.334 530.506,267.5 539.5,268C 550.037,268.386 558.203,272.886 564,281.5C 565.45,294.408 559.617,301.908 546.5,304C 530.963,307.814 515.63,307.147 500.5,302C 492.073,297.645 488.573,290.811 490,281.5C 495.38,273.395 502.88,268.728 512.5,267.5 Z"/></g>
<g><path style="opacity:1" fill="#f6f6f6" d="M 549.5,294.5 C 546.06,295.511 542.726,296.511 539.5,297.5C 530.833,298.833 522.167,298.833 513.5,297.5C 511.485,296.076 509.152,295.41 506.5,295.5C 497.244,289.756 497.244,283.923 506.5,278C 517.966,274.196 529.632,273.53 541.5,276C 546.67,277.034 550.837,279.534 554,283.5C 555.607,288.562 554.107,292.228 549.5,294.5 Z"/></g>
<g><path style="opacity:1" fill="#919192" d="M 506.5,295.5 C 509.152,295.41 511.485,296.076 513.5,297.5C 510.848,297.59 508.515,296.924 506.5,295.5 Z"/></g>
<g><path style="opacity:1" fill="#5f5f5f" d="M 549.5,294.5 C 546.749,296.975 543.416,297.975 539.5,297.5C 542.726,296.511 546.06,295.511 549.5,294.5 Z"/></g>
<g><path style="opacity:1" fill="#a7a7a6" d="M 616.5,282.5 C 616.5,282.833 616.5,283.167 616.5,283.5C 616.5,287.5 616.5,291.5 616.5,295.5C 632.5,295.5 648.5,295.5 664.5,295.5C 664.833,295.5 665.167,295.5 665.5,295.5C 649.008,296.497 632.342,296.83 615.5,296.5C 615.181,291.637 615.514,286.97 616.5,282.5 Z"/></g>
<g><path style="opacity:1" fill="#5a5a5a" d="M 178.5,292.5 C 179.451,293.919 179.784,295.585 179.5,297.5C 168.321,297.828 157.321,297.495 146.5,296.5C 157.167,296.5 167.833,296.5 178.5,296.5C 178.5,295.167 178.5,293.833 178.5,292.5 Z"/></g>
<g><path style="opacity:1" fill="#6a6a6a" d="M 217.5,209.5 C 218.498,238.662 218.831,267.995 218.5,297.5C 207.833,297.5 197.167,297.5 186.5,297.5C 186.5,297.167 186.5,296.833 186.5,296.5C 196.833,296.5 207.167,296.5 217.5,296.5C 217.5,267.5 217.5,238.5 217.5,209.5 Z"/></g>
<g><path style="opacity:1" fill="#a2a2a2" d="M 280.5,285.5 C 280.833,285.5 281.167,285.5 281.5,285.5C 281.5,289.167 281.5,292.833 281.5,296.5C 303.007,296.169 324.34,296.503 345.5,297.5C 323.833,297.5 302.167,297.5 280.5,297.5C 280.5,293.5 280.5,289.5 280.5,285.5 Z"/></g>
<g><path style="opacity:1" fill="#c4c3c3" d="M 143.5,284.5 C 135.167,284.5 126.833,284.5 118.5,284.5C 117.5,289.167 116.5,293.833 115.5,298.5C 104.167,298.5 92.8333,298.5 81.5,298.5C 81.2155,296.585 81.5489,294.919 82.5,293.5C 82.5,294.167 82.5,294.833 82.5,295.5C 92.7809,297.476 103.448,298.143 114.5,297.5C 115.5,292.833 116.5,288.167 117.5,283.5C 126.349,283.174 135.016,283.507 143.5,284.5 Z"/></g>
<g><path style="opacity:1" fill="#9c9c9c" d="M 1051.5,296.5 C 1052.17,307.833 1052.83,319.167 1053.5,330.5C 1053.44,331.043 1053.11,331.376 1052.5,331.5C 1051.5,319.852 1051.17,308.186 1051.5,296.5 Z"/></g>
<g><path style="opacity:1" fill="#a1a1a1" d="M 1043.5,301.5 C 1035.98,301.175 1028.65,301.508 1021.5,302.5C 1020.96,302.44 1020.62,302.107 1020.5,301.5C 1028.32,300.18 1035.99,300.18 1043.5,301.5 Z"/></g>
<g><path style="opacity:1" fill="#5d5d5d" d="M 331.5,277.5 C 311.674,278.497 291.674,278.83 271.5,278.5C 271.5,287.167 271.5,295.833 271.5,304.5C 296.167,304.5 320.833,304.5 345.5,304.5C 320.672,305.498 295.672,305.831 270.5,305.5C 270.5,296.167 270.5,286.833 270.5,277.5C 290.833,277.5 311.167,277.5 331.5,277.5 Z"/></g>
<g><path style="opacity:1" fill="#646463" d="M 795.5,301.5 C 794.741,306.43 793.408,311.097 791.5,315.5C 791.85,310.46 793.184,305.794 795.5,301.5 Z"/></g>
<g><path style="opacity:1" fill="#eeeeee" d="M 918.5,313.5 C 918.511,315.017 919.177,316.184 920.5,317C 906.327,317.827 892.327,317.661 878.5,316.5C 879.117,314.771 880.117,313.271 881.5,312C 887.667,311.833 893.833,311.667 900,311.5C 906.538,311.504 912.705,312.17 918.5,313.5 Z"/></g>
<g><path style="opacity:1" fill="#989999" d="M 998.5,309.5 C 1000.89,312.963 1001.56,316.629 1000.5,320.5C 1000.57,319.041 1000.23,317.708 999.5,316.5C 998.781,314.236 998.448,311.903 998.5,309.5 Z"/></g>
<g><path style="opacity:1" fill="#c7c7c7" d="M 867.5,317.5 C 845.64,318.198 823.64,318.865 801.5,319.5C 801.611,318.883 801.944,318.383 802.5,318C 824.164,317.5 845.831,317.333 867.5,317.5 Z"/></g>
<g><path style="opacity:1" fill="#c7c7c7" d="M 918.5,313.5 C 920.145,314.479 921.479,315.812 922.5,317.5C 907.5,318.833 892.5,318.833 877.5,317.5C 877.624,316.893 877.957,316.56 878.5,316.5C 892.327,317.661 906.327,317.827 920.5,317C 919.177,316.184 918.511,315.017 918.5,313.5 Z"/></g>
<g><path style="opacity:1" fill="#cdcdcd" d="M 931.5,316.5 C 954.167,317.833 976.833,317.833 999.5,316.5C 1000.23,317.708 1000.57,319.041 1000.5,320.5C 998.821,320.108 997.154,319.608 995.5,319C 974.5,318.667 953.5,318.333 932.5,318C 931.944,317.617 931.611,317.117 931.5,316.5 Z"/></g>
<g><path style="opacity:1" fill="#10100e" d="M 180.5,317.5 C 180.5,342.167 180.5,366.833 180.5,391.5C 177.5,391.5 174.5,391.5 171.5,391.5C 171.5,378.833 171.5,366.167 171.5,353.5C 166.833,353.5 162.167,353.5 157.5,353.5C 156.506,362.652 156.173,371.985 156.5,381.5C 153.833,381.5 151.167,381.5 148.5,381.5C 148.5,360.833 148.5,340.167 148.5,319.5C 151.5,319.5 154.5,319.5 157.5,319.5C 157.5,328.167 157.5,336.833 157.5,345.5C 162.167,345.5 166.833,345.5 171.5,345.5C 171.5,336.167 171.5,326.833 171.5,317.5C 174.5,317.5 177.5,317.5 180.5,317.5 Z"/></g>
<g><path style="opacity:1" fill="#4c4c4b" d="M 492.5,316.5 C 496.042,316.187 499.375,316.521 502.5,317.5C 499.5,317.5 496.5,317.5 493.5,317.5C 493.815,321.371 493.482,325.038 492.5,328.5C 492.5,324.5 492.5,320.5 492.5,316.5 Z"/></g>
<g><path style="opacity:1" fill="#595958" d="M 347.5,325.5 C 371.994,324.502 396.661,324.169 421.5,324.5C 421.827,334.015 421.494,343.348 420.5,352.5C 420.5,343.5 420.5,334.5 420.5,325.5C 396.167,325.5 371.833,325.5 347.5,325.5 Z"/></g>
<g><path style="opacity:1" fill="#a9a9a9" d="M 492.5,316.5 C 492.5,320.5 492.5,324.5 492.5,328.5C 481.167,328.5 469.833,328.5 458.5,328.5C 469.321,327.505 480.321,327.172 491.5,327.5C 491.185,323.629 491.518,319.962 492.5,316.5 Z"/></g>
<g><path style="opacity:1" fill="#fafafa" d="M 995.5,327.5 C 999.016,328.179 1001.52,330.179 1003,333.5C 1003.67,385.167 1003.67,436.833 1003,488.5C 1001.64,491.735 999.473,494.235 996.5,496C 931.833,496.667 867.167,496.667 802.5,496C 800.627,494.296 798.96,492.463 797.5,490.5C 797.333,438.166 797.5,385.832 798,333.5C 799.441,332.13 801.108,331.13 803,330.5C 803.483,329.552 803.649,328.552 803.5,327.5C 867.5,327.5 931.5,327.5 995.5,327.5 Z"/></g>
<g><path style="opacity:1" fill="#7f7f7e" d="M 111.5,319.5 C 111.5,323.833 111.5,328.167 111.5,332.5C 104.833,332.5 98.1667,332.5 91.5,332.5C 91.5,334.833 91.5,337.167 91.5,339.5C 98.1667,339.5 104.833,339.5 111.5,339.5C 111.802,342.059 111.468,344.393 110.5,346.5C 110.5,344.5 110.5,342.5 110.5,340.5C 103.833,340.5 97.1667,340.5 90.5,340.5C 90.5,337.5 90.5,334.5 90.5,331.5C 97.1667,331.5 103.833,331.5 110.5,331.5C 110.183,327.298 110.517,323.298 111.5,319.5 Z"/></g>
<g><path style="opacity:1" fill="#8a8a88" d="M 120.5,319.5 C 121.483,323.298 121.817,327.298 121.5,331.5C 127.833,331.5 134.167,331.5 140.5,331.5C 140.5,334.5 140.5,337.5 140.5,340.5C 133.833,340.5 127.167,340.5 120.5,340.5C 126.645,339.51 132.978,339.177 139.5,339.5C 139.5,337.167 139.5,334.833 139.5,332.5C 133.167,332.5 126.833,332.5 120.5,332.5C 120.5,328.167 120.5,323.833 120.5,319.5 Z"/></g>
<g><path style="opacity:1" fill="#b3b3b1" d="M 347.5,332.5 C 368.833,332.5 390.167,332.5 411.5,332.5C 411.825,340.019 411.492,347.352 410.5,354.5C 410.5,347.5 410.5,340.5 410.5,333.5C 389.327,333.831 368.327,333.497 347.5,332.5 Z"/></g>
<g><path style="opacity:1" fill="#111110" d="M 111.5,319.5 C 114.5,319.5 117.5,319.5 120.5,319.5C 120.5,323.833 120.5,328.167 120.5,332.5C 126.833,332.5 133.167,332.5 139.5,332.5C 139.5,334.833 139.5,337.167 139.5,339.5C 132.978,339.177 126.645,339.51 120.5,340.5C 121.67,355.161 129.003,365.495 142.5,371.5C 141.189,374.135 139.522,376.469 137.5,378.5C 127.423,374.63 120.757,367.63 117.5,357.5C 116.5,357.5 115.5,357.5 114.5,357.5C 111.458,368.046 104.958,375.713 95,380.5C 92.6794,379.513 91.0128,377.846 90,375.5C 89.2506,374.365 89.4173,373.365 90.5,372.5C 101.304,367.028 107.971,358.361 110.5,346.5C 111.468,344.393 111.802,342.059 111.5,339.5C 104.833,339.5 98.1667,339.5 91.5,339.5C 91.5,337.167 91.5,334.833 91.5,332.5C 98.1667,332.5 104.833,332.5 111.5,332.5C 111.5,328.167 111.5,323.833 111.5,319.5 Z"/></g>
<g><path style="opacity:1" fill="#676766" d="M 458.5,328.5 C 458.5,330.833 458.5,333.167 458.5,335.5C 469.679,335.172 480.679,335.505 491.5,336.5C 480.167,336.5 468.833,336.5 457.5,336.5C 457.194,333.615 457.527,330.948 458.5,328.5 Z"/></g>
<g><path style="opacity:1" fill="#676766" d="M 536.5,328.5 C 537.473,330.948 537.806,333.615 537.5,336.5C 525.784,335.856 514.451,336.522 503.5,338.5C 502.596,337.791 502.263,336.791 502.5,335.5C 513.833,335.5 525.167,335.5 536.5,335.5C 536.5,333.167 536.5,330.833 536.5,328.5 Z"/></g>
<g><path style="opacity:1" fill="#cfcfcf" d="M 995.5,327.5 C 931.5,327.5 867.5,327.5 803.5,327.5C 803.649,328.552 803.483,329.552 803,330.5C 801.108,331.13 799.441,332.13 798,333.5C 797.5,385.832 797.333,438.166 797.5,490.5C 796.335,438.002 796.168,385.335 797,332.5C 798.833,330.667 800.667,328.833 802.5,327C 867.001,326.168 931.335,326.335 995.5,327.5 Z"/></g>
<g><path style="opacity:1" fill="#111110" d="M 347.5,325.5 C 371.833,325.5 396.167,325.5 420.5,325.5C 420.5,334.5 420.5,343.5 420.5,352.5C 420.5,353.5 420.5,354.5 420.5,355.5C 419.049,360.959 418.049,366.626 417.5,372.5C 422.833,372.5 428.167,372.5 433.5,372.5C 433.5,374.833 433.5,377.167 433.5,379.5C 418.657,379.171 403.99,379.504 389.5,380.5C 389.5,396.167 389.5,411.833 389.5,427.5C 386.167,427.5 382.833,427.5 379.5,427.5C 379.5,411.833 379.5,396.167 379.5,380.5C 365.01,379.504 350.343,379.171 335.5,379.5C 335.5,377.167 335.5,374.833 335.5,372.5C 360.006,372.831 384.339,372.498 408.5,371.5C 409.493,365.875 410.16,360.208 410.5,354.5C 411.492,347.352 411.825,340.019 411.5,332.5C 390.167,332.5 368.833,332.5 347.5,332.5C 347.5,330.167 347.5,327.833 347.5,325.5 Z"/></g>
<g><path style="opacity:1" fill="#131211" d="M 502.5,317.5 C 502.5,321.167 502.5,324.833 502.5,328.5C 513.833,328.5 525.167,328.5 536.5,328.5C 536.5,330.833 536.5,333.167 536.5,335.5C 525.167,335.5 513.833,335.5 502.5,335.5C 502.263,336.791 502.596,337.791 503.5,338.5C 505.136,343.975 508.47,348.142 513.5,351C 521.906,355.747 530.906,358.58 540.5,359.5C 540.414,361.677 539.747,363.677 538.5,365.5C 535.185,366.553 531.852,366.553 528.5,365.5C 525.495,363.723 522.162,362.723 518.5,362.5C 509.936,359.716 502.936,354.716 497.5,347.5C 492.3,353.911 485.967,358.578 478.5,361.5C 475.254,362.054 472.254,363.054 469.5,364.5C 465.125,365.274 460.792,365.274 456.5,364.5C 455.833,362.833 455.167,361.167 454.5,359.5C 463.975,358.05 472.975,355.217 481.5,351C 487.207,347.737 490.541,342.904 491.5,336.5C 480.679,335.505 469.679,335.172 458.5,335.5C 458.5,333.167 458.5,330.833 458.5,328.5C 469.833,328.5 481.167,328.5 492.5,328.5C 493.482,325.038 493.815,321.371 493.5,317.5C 496.5,317.5 499.5,317.5 502.5,317.5 Z"/></g>
<g><path style="opacity:1" fill="#aeaeae" d="M 788.5,330.5 C 788.5,371.167 788.5,411.833 788.5,452.5C 786.265,452.795 784.265,452.461 782.5,451.5C 784.167,451.5 785.833,451.5 787.5,451.5C 787.168,410.997 787.501,370.663 788.5,330.5 Z"/></g>
<g><path style="opacity:1" fill="#0e0e0e" d="M 1260.5,366.5 C 1260.78,389.189 1260.45,411.855 1259.5,434.5C 1255.77,444.226 1248.77,449.893 1238.5,451.5C 1236.5,451.5 1234.5,451.5 1232.5,451.5C 1232.5,460.833 1232.5,470.167 1232.5,479.5C 1230.78,481.517 1228.78,481.85 1226.5,480.5C 1217.01,471.844 1208.01,462.678 1199.5,453C 1158.83,452.667 1118.17,452.333 1077.5,452C 1065.48,448.644 1058.31,440.81 1056,428.5C 1055.33,408.833 1055.33,389.167 1056,369.5C 1058.2,358.967 1064.36,351.801 1074.5,348C 1129.83,347.333 1185.17,347.333 1240.5,348C 1250.57,350.571 1257.24,356.738 1260.5,366.5 Z"/></g>
<g><path style="opacity:1" fill="#101010" d="M 818.5,353.5 C 872.501,353.333 926.501,353.5 980.5,354C 988.502,356.003 994.002,360.836 997,368.5C 997.956,390.551 997.623,412.551 996,434.5C 992.911,441.256 987.745,445.423 980.5,447C 970.506,447.5 960.506,447.666 950.5,447.5C 950.666,457.839 950.5,468.172 950,478.5C 949.5,479 949,479.5 948.5,480C 915.828,480.833 883.162,480.667 850.5,479.5C 850.192,478.692 849.692,478.025 849,477.5C 848.5,467.506 848.334,457.506 848.5,447.5C 838.161,447.666 827.828,447.5 817.5,447C 809.537,444.706 804.704,439.539 803,431.5C 802.333,410.167 802.333,388.833 803,367.5C 806.425,360.876 811.592,356.21 818.5,353.5 Z"/></g>
<g><path style="opacity:1" fill="#fdfdfd" d="M 1225.5,446.5 C 1224.83,453.167 1224.17,459.833 1223.5,466.5C 1216.03,459.865 1209.03,452.698 1202.5,445C 1161.5,444.667 1120.5,444.333 1079.5,444C 1071.87,442.373 1066.7,437.873 1064,430.5C 1063.33,409.833 1063.33,389.167 1064,368.5C 1066.24,361.93 1070.74,357.763 1077.5,356C 1132.55,355.017 1187.55,355.35 1242.5,357C 1247.73,359.232 1251.23,363.065 1253,368.5C 1253.67,388.833 1253.67,409.167 1253,429.5C 1250.65,437.848 1245.15,442.682 1236.5,444C 1233.17,444.333 1229.83,444.667 1226.5,445C 1225.94,445.383 1225.61,445.883 1225.5,446.5 Z"/></g>
<g><path style="opacity:1" fill="#616160" d="M 148.5,319.5 C 148.5,340.167 148.5,360.833 148.5,381.5C 151.167,381.5 153.833,381.5 156.5,381.5C 156.173,371.985 156.506,362.652 157.5,353.5C 157.5,363.167 157.5,372.833 157.5,382.5C 154.167,382.5 150.833,382.5 147.5,382.5C 147.169,361.327 147.503,340.327 148.5,319.5 Z"/></g>
<g><path style="opacity:1" fill="#7b7b7c" d="M 518.5,362.5 C 522.162,362.723 525.495,363.723 528.5,365.5C 524.838,365.277 521.505,364.277 518.5,362.5 Z"/></g>
<g><path style="opacity:1" fill="#fafafa" d="M 979.5,438.5 C 970.167,438.5 960.833,438.5 951.5,438.5C 951.784,436.585 951.451,434.919 950.5,433.5C 950.047,432.542 949.381,431.708 948.5,431C 915.833,430.333 883.167,430.333 850.5,431C 848.686,433.481 848.02,436.315 848.5,439.5C 838.161,439.666 827.828,439.5 817.5,439C 815.667,437.167 813.833,435.333 812,433.5C 810.367,412.231 810.034,390.897 811,369.5C 812.833,366.333 815.333,363.833 818.5,362C 872.836,361.167 927.17,361.333 981.5,362.5C 985.06,364.192 987.56,366.858 989,370.5C 989.667,390.5 989.667,410.5 989,430.5C 987.472,435.201 984.305,437.868 979.5,438.5 Z"/></g>
<g><path style="opacity:1" fill="#131312" d="M 287.5,360.5 C 276.833,360.5 266.167,360.5 255.5,360.5C 255.5,364.833 255.5,369.167 255.5,373.5C 270.5,373.5 285.5,373.5 300.5,373.5C 300.5,375.833 300.5,378.167 300.5,380.5C 267.5,380.5 234.5,380.5 201.5,380.5C 201.5,378.167 201.5,375.833 201.5,373.5C 216.5,373.5 231.5,373.5 246.5,373.5C 246.5,369.167 246.5,364.833 246.5,360.5C 235.833,360.5 225.167,360.5 214.5,360.5C 214.5,347.167 214.5,333.833 214.5,320.5C 217.833,320.5 221.167,320.5 224.5,320.5C 224.5,324.5 224.5,328.5 224.5,332.5C 242.167,332.5 259.833,332.5 277.5,332.5C 277.5,328.5 277.5,324.5 277.5,320.5C 280.833,320.5 284.167,320.5 287.5,320.5C 287.5,333.833 287.5,347.167 287.5,360.5 Z"/></g>
<g><path style="opacity:1" fill="#878787" d="M 224.5,340.5 C 224.5,344.5 224.5,348.5 224.5,352.5C 242.167,352.5 259.833,352.5 277.5,352.5C 259.674,353.497 241.674,353.83 223.5,353.5C 223.182,348.968 223.515,344.634 224.5,340.5 Z"/></g>
<g><path style="opacity:1" fill="#f9f9f9" d="M 224.5,340.5 C 242.167,340.5 259.833,340.5 277.5,340.5C 277.5,344.5 277.5,348.5 277.5,352.5C 259.833,352.5 242.167,352.5 224.5,352.5C 224.5,348.5 224.5,344.5 224.5,340.5 Z"/></g>
<g><path style="opacity:1" fill="#9a9a9a" d="M 478.5,361.5 C 475.992,363.554 472.992,364.554 469.5,364.5C 472.254,363.054 475.254,362.054 478.5,361.5 Z"/></g>
<g><path style="opacity:1" fill="#616160" d="M 408.5,371.5 C 384.339,372.498 360.006,372.831 335.5,372.5C 335.5,374.833 335.5,377.167 335.5,379.5C 350.343,379.171 365.01,379.504 379.5,380.5C 364.5,380.5 349.5,380.5 334.5,380.5C 334.5,377.5 334.5,374.5 334.5,371.5C 359.167,371.5 383.833,371.5 408.5,371.5 Z"/></g>
<g><path style="opacity:1" fill="#787877" d="M 420.5,355.5 C 420.67,360.813 420.003,365.98 418.5,371C 424.016,371.173 429.349,371.673 434.5,372.5C 434.167,372.5 433.833,372.5 433.5,372.5C 428.167,372.5 422.833,372.5 417.5,372.5C 418.049,366.626 419.049,360.959 420.5,355.5 Z"/></g>
<g><path style="opacity:1" fill="#929291" d="M 214.5,360.5 C 225.167,360.5 235.833,360.5 246.5,360.5C 246.5,364.833 246.5,369.167 246.5,373.5C 231.5,373.5 216.5,373.5 201.5,373.5C 215.99,372.504 230.657,372.171 245.5,372.5C 245.5,368.833 245.5,365.167 245.5,361.5C 234.986,361.828 224.653,361.494 214.5,360.5 Z"/></g>
<g><path style="opacity:1" fill="#949393" d="M 287.5,360.5 C 277.347,361.494 267.014,361.828 256.5,361.5C 256.5,365.167 256.5,368.833 256.5,372.5C 271.343,372.171 286.01,372.504 300.5,373.5C 285.5,373.5 270.5,373.5 255.5,373.5C 255.5,369.167 255.5,364.833 255.5,360.5C 266.167,360.5 276.833,360.5 287.5,360.5 Z"/></g>
<g><path style="opacity:1" fill="#636362" d="M 502.5,381.5 C 516.99,380.504 531.657,380.171 546.5,380.5C 546.5,378.167 546.5,375.833 546.5,373.5C 513.833,373.5 481.167,373.5 448.5,373.5C 448.5,375.833 448.5,378.167 448.5,380.5C 463.343,380.171 478.01,380.504 492.5,381.5C 477.5,381.5 462.5,381.5 447.5,381.5C 447.5,378.5 447.5,375.5 447.5,372.5C 480.833,372.5 514.167,372.5 547.5,372.5C 547.5,375.5 547.5,378.5 547.5,381.5C 532.5,381.5 517.5,381.5 502.5,381.5 Z"/></g>
<g><path style="opacity:1" fill="#232323" d="M 1260.5,366.5 C 1261.66,388.329 1261.83,410.329 1261,432.5C 1260.72,433.416 1260.22,434.082 1259.5,434.5C 1260.45,411.855 1260.78,389.189 1260.5,366.5 Z"/></g>
<g><path style="opacity:1" fill="#8b8a89" d="M 180.5,317.5 C 181.498,342.328 181.831,367.328 181.5,392.5C 178.167,392.5 174.833,392.5 171.5,392.5C 171.5,392.167 171.5,391.833 171.5,391.5C 174.5,391.5 177.5,391.5 180.5,391.5C 180.5,366.833 180.5,342.167 180.5,317.5 Z"/></g>
<g><path style="opacity:1" fill="#4b4b49" d="M 433.5,372.5 C 433.833,372.5 434.167,372.5 434.5,372.5C 434.5,375.167 434.5,377.833 434.5,380.5C 419.5,380.5 404.5,380.5 389.5,380.5C 403.99,379.504 418.657,379.171 433.5,379.5C 433.5,377.167 433.5,374.833 433.5,372.5 Z"/></g>
<g><path style="opacity:1" fill="#343433" d="M 201.5,373.5 C 201.5,375.833 201.5,378.167 201.5,380.5C 234.5,380.5 267.5,380.5 300.5,380.5C 267.338,381.498 234.004,381.832 200.5,381.5C 200.194,378.615 200.527,375.948 201.5,373.5 Z"/></g>
<g><path style="opacity:1" fill="#d3d3d2" d="M 157.5,353.5 C 162.167,353.5 166.833,353.5 171.5,353.5C 171.5,366.167 171.5,378.833 171.5,391.5C 171.5,391.833 171.5,392.167 171.5,392.5C 170.505,380.011 170.171,367.344 170.5,354.5C 166.5,354.5 162.5,354.5 158.5,354.5C 158.827,364.015 158.494,373.348 157.5,382.5C 157.5,372.833 157.5,363.167 157.5,353.5 Z"/></g>
<g><path style="opacity:1" fill="#eeeeee" d="M 761.5,389.5 C 763.074,387.898 763.741,385.898 763.5,383.5C 764.114,381.277 765.448,379.611 767.5,378.5C 769.498,383.33 770.998,388.33 772,393.5C 773.554,408.127 772.221,422.461 768,436.5C 767.417,438.002 766.584,439.335 765.5,440.5C 763.904,437.544 762.404,434.544 761,431.5C 760.173,417.327 760.339,403.327 761.5,389.5 Z"/></g>
<g><path style="opacity:1" fill="#f5f5f5" d="M 1027.5,418.5 C 1027.44,408.15 1027.77,397.817 1028.5,387.5C 1029.28,384.224 1030.28,380.891 1031.5,377.5C 1035.24,380.971 1037.4,385.304 1038,390.5C 1038.67,404.167 1038.67,417.833 1038,431.5C 1036.97,434.754 1035.47,437.754 1033.5,440.5C 1030.35,433.372 1028.35,426.039 1027.5,418.5 Z"/></g>
<g><path style="opacity:1" fill="#0e0e0e" d="M 856.5,385.5 C 873.766,385.257 879.599,393.257 874,409.5C 867.439,417.173 859.939,418.339 851.5,413C 842.276,401.709 843.943,392.543 856.5,385.5 Z"/></g>
<g><path style="opacity:1" fill="#0d0d0d" d="M 923.5,404.5 C 923.323,400.766 923.656,397.099 924.5,393.5C 929.572,385.508 936.572,383.342 945.5,387C 953.103,391.395 955.603,397.895 953,406.5C 946.879,416.655 938.712,418.821 928.5,413C 926.18,410.522 924.514,407.689 923.5,404.5 Z"/></g>
<g><path style="opacity:1" fill="#4e4e4e" d="M 255.5,389.5 C 252.5,389.5 249.5,389.5 246.5,389.5C 246.784,391.415 246.451,393.081 245.5,394.5C 245.5,392.5 245.5,390.5 245.5,388.5C 249.042,388.187 252.375,388.521 255.5,389.5 Z"/></g>
<g><path style="opacity:1" fill="#8b8b8b" d="M 763.5,383.5 C 763.741,385.898 763.074,387.898 761.5,389.5C 761.259,387.102 761.926,385.102 763.5,383.5 Z"/></g>
<g><path style="opacity:1" fill="#f1f1f1" d="M 857.5,393.5 C 868.818,392.992 871.485,397.492 865.5,407C 857.247,409.386 853.414,406.219 854,397.5C 855.376,396.295 856.542,394.962 857.5,393.5 Z"/></g>
<g><path style="opacity:1" fill="#efefef" d="M 934.5,393.5 C 945.818,392.992 948.485,397.492 942.5,407C 934.216,409.39 930.383,406.223 931,397.5C 932.376,396.295 933.542,394.962 934.5,393.5 Z"/></g>
<g><path style="opacity:1" fill="#0d0d0c" d="M 502.5,381.5 C 502.5,385.5 502.5,389.5 502.5,393.5C 512.987,394.494 523.654,394.828 534.5,394.5C 534.5,405.167 534.5,415.833 534.5,426.5C 531.5,426.5 528.5,426.5 525.5,426.5C 525.826,417.983 525.493,409.65 524.5,401.5C 503.006,400.503 481.34,400.169 459.5,400.5C 459.5,398.5 459.5,396.5 459.5,394.5C 470.679,394.828 481.679,394.495 492.5,393.5C 492.5,389.5 492.5,385.5 492.5,381.5C 478.01,380.504 463.343,380.171 448.5,380.5C 448.5,378.167 448.5,375.833 448.5,373.5C 481.167,373.5 513.833,373.5 546.5,373.5C 546.5,375.833 546.5,378.167 546.5,380.5C 531.657,380.171 516.99,380.504 502.5,381.5 Z"/></g>
<g><path style="opacity:1" fill="#3c3c3b" d="M 492.5,393.5 C 481.679,394.495 470.679,394.828 459.5,394.5C 459.5,396.5 459.5,398.5 459.5,400.5C 481.34,400.169 503.006,400.503 524.5,401.5C 502.5,401.5 480.5,401.5 458.5,401.5C 458.5,398.833 458.5,396.167 458.5,393.5C 469.833,393.5 481.167,393.5 492.5,393.5 Z"/></g>
<g><path style="opacity:1" fill="#6e6e6e" d="M 924.5,393.5 C 923.656,397.099 923.323,400.766 923.5,404.5C 922.359,401.36 922.192,398.027 923,394.5C 923.383,393.944 923.883,393.611 924.5,393.5 Z"/></g>
<g><path style="opacity:1" fill="#141414" d="M 139.5,387.5 C 142.833,387.5 146.167,387.5 149.5,387.5C 148.889,392.618 150.056,397.285 153,401.5C 162.169,410.829 173.003,417.163 185.5,420.5C 184.253,422.323 183.586,424.323 183.5,426.5C 171.943,425.37 161.609,421.203 152.5,414C 149.992,410.662 147.325,407.495 144.5,404.5C 134.644,417.591 121.644,424.591 105.5,425.5C 104.627,423.587 103.627,421.753 102.5,420C 113.868,417.067 124.034,411.9 133,404.5C 137.397,399.703 139.563,394.037 139.5,387.5 Z"/></g>
<g><path style="opacity:1" fill="#141413" d="M 255.5,389.5 C 256.032,397.397 259.366,403.897 265.5,409C 273.756,414.633 282.756,418.299 292.5,420C 291.373,421.753 290.373,423.587 289.5,425.5C 278.799,425.833 269.133,422.666 260.5,416C 256.956,412.625 253.623,409.125 250.5,405.5C 241.111,418.362 228.444,425.195 212.5,426C 210.798,423.765 209.798,421.265 209.5,418.5C 221.06,417.3 231.226,412.967 240,405.5C 242.393,402.048 244.226,398.381 245.5,394.5C 246.451,393.081 246.784,391.415 246.5,389.5C 249.5,389.5 252.5,389.5 255.5,389.5 Z"/></g>
<g><path style="opacity:1" fill="#777776" d="M 502.5,393.5 C 513.5,393.5 524.5,393.5 535.5,393.5C 535.5,404.833 535.5,416.167 535.5,427.5C 531.833,427.5 528.167,427.5 524.5,427.5C 524.5,418.833 524.5,410.167 524.5,401.5C 525.493,409.65 525.826,417.983 525.5,426.5C 528.5,426.5 531.5,426.5 534.5,426.5C 534.5,415.833 534.5,405.167 534.5,394.5C 523.654,394.828 512.987,394.494 502.5,393.5 Z"/></g>
<g><path style="opacity:1" fill="#696969" d="M 1028.5,387.5 C 1027.77,397.817 1027.44,408.15 1027.5,418.5C 1026.83,414.681 1026.5,410.681 1026.5,406.5C 1026.36,399.935 1027.03,393.601 1028.5,387.5 Z"/></g>
<g><path style="opacity:1" fill="#b2b2b2" d="M 950.5,433.5 C 951.451,434.919 951.784,436.585 951.5,438.5C 960.833,438.5 970.167,438.5 979.5,438.5C 970.014,439.494 960.348,439.827 950.5,439.5C 950.5,437.5 950.5,435.5 950.5,433.5 Z"/></g>
<g><path style="opacity:1" fill="#929292" d="M 857.5,438.5 C 857.5,438.833 857.5,439.167 857.5,439.5C 857.5,450.167 857.5,460.833 857.5,471.5C 860.5,471.5 863.5,471.5 866.5,471.5C 866.833,471.5 867.167,471.5 867.5,471.5C 864.038,472.482 860.371,472.815 856.5,472.5C 856.172,460.988 856.505,449.654 857.5,438.5 Z"/></g>
<g><path style="opacity:1" fill="#fdfdfd" d="M 857.5,439.5 C 860.5,439.5 863.5,439.5 866.5,439.5C 866.5,450.167 866.5,460.833 866.5,471.5C 863.5,471.5 860.5,471.5 857.5,471.5C 857.5,460.833 857.5,450.167 857.5,439.5 Z"/></g>
<g><path style="opacity:1" fill="#fbfbfb" d="M 875.5,439.5 C 878.833,439.5 882.167,439.5 885.5,439.5C 885.5,450.167 885.5,460.833 885.5,471.5C 882.167,471.5 878.833,471.5 875.5,471.5C 875.5,460.833 875.5,450.167 875.5,439.5 Z"/></g>
<g><path style="opacity:1" fill="#f7f7f7" d="M 904.5,438.5 C 904.5,449.5 904.5,460.5 904.5,471.5C 901.167,471.5 897.833,471.5 894.5,471.5C 894.5,460.5 894.5,449.5 894.5,438.5C 897.833,438.5 901.167,438.5 904.5,438.5 Z"/></g>
<g><path style="opacity:1" fill="#fafafa" d="M 923.5,438.5 C 923.5,449.5 923.5,460.5 923.5,471.5C 920.167,471.5 916.833,471.5 913.5,471.5C 913.5,460.5 913.5,449.5 913.5,438.5C 916.833,438.5 920.167,438.5 923.5,438.5 Z"/></g>
<g><path style="opacity:1" fill="#f7f7f7" d="M 932.5,438.5 C 935.833,438.5 939.167,438.5 942.5,438.5C 942.5,449.833 942.5,461.167 942.5,472.5C 939.167,472.5 935.833,472.5 932.5,472.5C 932.5,461.167 932.5,449.833 932.5,438.5 Z"/></g>
<g><path style="opacity:1" fill="#c5c5c5" d="M 857.5,439.5 C 857.5,439.167 857.5,438.833 857.5,438.5C 860.833,438.5 864.167,438.5 867.5,438.5C 867.5,449.5 867.5,460.5 867.5,471.5C 867.167,471.5 866.833,471.5 866.5,471.5C 866.5,460.833 866.5,450.167 866.5,439.5C 863.5,439.5 860.5,439.5 857.5,439.5 Z"/></g>
<g><path style="opacity:1" fill="#878787" d="M 923.5,438.5 C 924.495,449.654 924.828,460.988 924.5,472.5C 920.629,472.815 916.962,472.482 913.5,471.5C 916.833,471.5 920.167,471.5 923.5,471.5C 923.5,460.5 923.5,449.5 923.5,438.5 Z"/></g>
<g><path style="opacity:1" fill="#868787" d="M 904.5,438.5 C 905.495,449.654 905.828,460.988 905.5,472.5C 901.629,472.815 897.962,472.482 894.5,471.5C 897.833,471.5 901.167,471.5 904.5,471.5C 904.5,460.5 904.5,449.5 904.5,438.5 Z"/></g>
<g><path style="opacity:1" fill="#686968" d="M 1225.5,446.5 C 1225.83,453.532 1225.5,460.532 1224.5,467.5C 1223.89,467.376 1223.56,467.043 1223.5,466.5C 1224.17,459.833 1224.83,453.167 1225.5,446.5 Z"/></g>
<g><path style="opacity:1" fill="#d5d6d6" d="M 1184.5,461.5 C 1135.14,461.185 1085.81,461.519 1036.5,462.5C 1037.26,461.732 1038.26,461.232 1039.5,461C 1088,460.168 1136.34,460.335 1184.5,461.5 Z"/></g>
<g><path style="opacity:1" fill="#bebebe" d="M 875.5,439.5 C 878.962,438.518 882.629,438.185 886.5,438.5C 886.5,449.833 886.5,461.167 886.5,472.5C 882.629,472.815 878.962,472.482 875.5,471.5C 878.833,471.5 882.167,471.5 885.5,471.5C 885.5,460.833 885.5,450.167 885.5,439.5C 882.167,439.5 878.833,439.5 875.5,439.5 Z"/></g>
<g><path style="opacity:1" fill="#101010" d="M 1184.5,461.5 C 1194.78,463.459 1202.12,469.126 1206.5,478.5C 1207.67,498.825 1207.83,519.158 1207,539.5C 1205.25,551.583 1198.42,558.75 1186.5,561C 1154.49,561.167 1122.49,561.667 1090.5,562.5C 1079.81,575.355 1069.31,588.355 1059,601.5C 1056.6,605.687 1053.6,606.354 1050,603.5C 1049.5,589.504 1049.33,575.504 1049.5,561.5C 1034.01,562.52 1024.18,555.52 1020,540.5C 1019.33,520.833 1019.33,501.167 1020,481.5C 1022.19,472.155 1027.69,465.822 1036.5,462.5C 1085.81,461.519 1135.14,461.185 1184.5,461.5 Z"/></g>
<g><path style="opacity:1" fill="#818181" d="M 1238.5,451.5 C 1237.08,452.451 1235.41,452.784 1233.5,452.5C 1233.83,461.682 1233.49,470.682 1232.5,479.5C 1232.5,470.167 1232.5,460.833 1232.5,451.5C 1234.5,451.5 1236.5,451.5 1238.5,451.5 Z"/></g>
<g><path style="opacity:1" fill="#979797" d="M 1186.5,470.5 C 1137.83,470.333 1089.17,470.5 1040.5,471C 1038.85,471.608 1037.18,472.108 1035.5,472.5C 1036.35,471.034 1037.68,470.2 1039.5,470C 1088.67,469.168 1137.67,469.335 1186.5,470.5 Z"/></g>
<g><path style="opacity:1" fill="#fdfdfd" d="M 1186.5,470.5 C 1191.75,471.022 1195.42,473.689 1197.5,478.5C 1198.83,500.167 1198.83,521.833 1197.5,543.5C 1195.15,548.676 1191.15,551.842 1185.5,553C 1152.83,553.333 1120.17,553.667 1087.5,554C 1077.55,564.775 1068.22,575.942 1059.5,587.5C 1058.83,577.167 1058.17,566.833 1057.5,556.5C 1057.42,555.25 1056.76,554.417 1055.5,554C 1050.17,553.667 1044.83,553.333 1039.5,553C 1034.64,550.808 1031.14,547.308 1029,542.5C 1028.33,521.833 1028.33,501.167 1029,480.5C 1030.25,477.087 1032.41,474.421 1035.5,472.5C 1037.18,472.108 1038.85,471.608 1040.5,471C 1089.17,470.5 1137.83,470.333 1186.5,470.5 Z"/></g>
<g><path style="opacity:1" fill="#b0b0b0" d="M 1197.5,478.5 C 1198.22,478.918 1198.72,479.584 1199,480.5C 1199.67,500.833 1199.67,521.167 1199,541.5C 1198.72,542.416 1198.22,543.082 1197.5,543.5C 1198.83,521.833 1198.83,500.167 1197.5,478.5 Z"/></g>
<g><path style="opacity:1" fill="#888988" d="M 982.5,506.5 C 927.167,505.167 871.833,505.167 816.5,506.5C 815.957,506.44 815.624,506.107 815.5,505.5C 871.5,504.167 927.5,504.167 983.5,505.5C 983.376,506.107 983.043,506.44 982.5,506.5 Z"/></g>
<g><path style="opacity:1" fill="#e4e4e5" d="M 816.5,506.5 C 871.833,505.167 927.167,505.167 982.5,506.5C 982.196,507.15 981.863,507.817 981.5,508.5C 927.17,509.667 872.836,509.833 818.5,509C 817.934,508.005 817.267,507.172 816.5,506.5 Z"/></g>
<g><path style="opacity:1" fill="#f8f8f8" d="M 885.5,517.5 C 895.167,517.5 904.833,517.5 914.5,517.5C 914.5,520.167 914.5,522.833 914.5,525.5C 904.833,525.5 895.167,525.5 885.5,525.5C 885.5,522.833 885.5,520.167 885.5,517.5 Z"/></g>
<g><path style="opacity:1" fill="#3c3c3c" d="M 939.5,533.5 C 912.995,533.169 886.661,533.502 860.5,534.5C 860.5,534.833 860.5,535.167 860.5,535.5C 859.596,534.791 859.263,533.791 859.5,532.5C 886.339,532.169 913.005,532.502 939.5,533.5 Z"/></g>
<g><path style="opacity:1" fill="#cccbcb" d="M 860.5,534.5 C 886.661,533.502 912.995,533.169 939.5,533.5C 939.672,534.492 939.338,535.158 938.5,535.5C 912.672,534.502 886.672,534.169 860.5,534.5 Z"/></g>
<g><path style="opacity:1" fill="#838383" d="M 90.5,489.5 C 209.5,489.5 328.5,489.5 447.5,489.5C 447.827,512.742 447.494,535.908 446.5,559C 327.834,559.5 209.167,559.667 90.5,559.5C 90.5,536.167 90.5,512.833 90.5,489.5 Z"/></g>
<g><path style="opacity:1" fill="#fafaf9" d="M 91.5,490.5 C 209.5,490.5 327.5,490.5 445.5,490.5C 445.5,512.833 445.5,535.167 445.5,557.5C 327.5,557.5 209.5,557.5 91.5,557.5C 91.5,535.167 91.5,512.833 91.5,490.5 Z"/></g>
<g><path style="opacity:1" fill="#717171" d="M 283.5,530.5 C 284.482,533.962 284.815,537.629 284.5,541.5C 275.983,541.826 267.65,541.493 259.5,540.5C 259.833,540.5 260.167,540.5 260.5,540.5C 268.167,540.5 275.833,540.5 283.5,540.5C 283.5,537.167 283.5,533.833 283.5,530.5 Z"/></g>
<g><path style="opacity:1" fill="#61605f" d="M 215.5,516.5 C 216.492,524.316 216.826,532.316 216.5,540.5C 220.5,540.5 224.5,540.5 228.5,540.5C 224.366,541.485 220.032,541.818 215.5,541.5C 215.5,533.167 215.5,524.833 215.5,516.5 Z"/></g>
<g><path style="opacity:1" fill="#424140" d="M 166.5,506.5 C 162.5,506.5 158.5,506.5 154.5,506.5C 154.5,517.833 154.5,529.167 154.5,540.5C 158.5,540.5 162.5,540.5 166.5,540.5C 162.366,541.485 158.032,541.818 153.5,541.5C 153.5,529.5 153.5,517.5 153.5,505.5C 158.032,505.182 162.366,505.515 166.5,506.5 Z"/></g>
<g><path style="opacity:1" fill="#3c3d3c" d="M 401.5,516.5 C 402.492,524.316 402.826,532.316 402.5,540.5C 406.167,540.5 409.833,540.5 413.5,540.5C 413.174,532.316 413.508,524.316 414.5,516.5C 414.5,524.833 414.5,533.167 414.5,541.5C 410.167,541.5 405.833,541.5 401.5,541.5C 401.5,533.167 401.5,524.833 401.5,516.5 Z"/></g>
<g><path style="opacity:1" fill="#11110f" d="M 135.5,506.5 C 149.432,510.716 153.432,519.716 147.5,533.5C 144.136,537.681 139.803,540.015 134.5,540.5C 127.833,540.5 121.167,540.5 114.5,540.5C 114.5,529.167 114.5,517.833 114.5,506.5C 121.5,506.5 128.5,506.5 135.5,506.5 Z"/></g>
<g><path style="opacity:1" fill="#babab8" d="M 133.5,516.5 C 131.167,516.5 128.833,516.5 126.5,516.5C 126.5,521.167 126.5,525.833 126.5,530.5C 128.833,530.5 131.167,530.5 133.5,530.5C 131.052,531.473 128.385,531.806 125.5,531.5C 125.5,526.167 125.5,520.833 125.5,515.5C 128.385,515.194 131.052,515.527 133.5,516.5 Z"/></g>
<g><path style="opacity:1" fill="#8c8a8b" d="M 337.5,518.5 C 341.5,518.5 345.5,518.5 349.5,518.5C 349.81,521.713 349.477,524.713 348.5,527.5C 348.5,524.833 348.5,522.167 348.5,519.5C 344.629,519.815 340.962,519.482 337.5,518.5 Z"/></g>
<g><path style="opacity:1" fill="#151413" d="M 193.5,505.5 C 198.614,506.947 201.614,510.28 202.5,515.5C 199.291,515.411 196.125,515.744 193,516.5C 190.416,513.974 187.25,512.974 183.5,513.5C 183.238,514.978 183.571,516.311 184.5,517.5C 189.172,518.224 193.838,519.057 198.5,520C 204.602,524.105 206.102,529.605 203,536.5C 200.592,538.956 197.759,540.789 194.5,542C 189.167,542.667 183.833,542.667 178.5,542C 173.617,539.631 170.95,535.797 170.5,530.5C 174.466,529.838 178.466,529.505 182.5,529.5C 182.36,531.124 183.027,532.29 184.5,533C 186.833,533.667 189.167,533.667 191.5,533C 192.925,531.286 192.592,529.953 190.5,529C 184.002,529.087 178.169,527.254 173,523.5C 168.561,516.055 170.061,510.388 177.5,506.5C 182.797,505.725 188.13,505.392 193.5,505.5 Z"/></g>
<g><path style="opacity:1" fill="#4d4d4d" d="M 241.5,505.5 C 245.833,505.5 250.167,505.5 254.5,505.5C 254.5,517.5 254.5,529.5 254.5,541.5C 250.167,541.5 245.833,541.5 241.5,541.5C 241.5,529.5 241.5,517.5 241.5,505.5 Z"/></g>
<g><path style="opacity:1" fill="#0e0d0c" d="M 206.5,506.5 C 216.833,506.5 227.167,506.5 237.5,506.5C 237.5,509.833 237.5,513.167 237.5,516.5C 234.5,516.5 231.5,516.5 228.5,516.5C 228.5,524.5 228.5,532.5 228.5,540.5C 224.5,540.5 220.5,540.5 216.5,540.5C 216.826,532.316 216.492,524.316 215.5,516.5C 212.5,516.5 209.5,516.5 206.5,516.5C 206.5,513.167 206.5,509.833 206.5,506.5 Z"/></g>
<g><path style="opacity:1" fill="#2d2d2c" d="M 272.5,530.5 C 271.508,522.684 271.174,514.684 271.5,506.5C 267.833,506.5 264.167,506.5 260.5,506.5C 260.5,517.833 260.5,529.167 260.5,540.5C 260.167,540.5 259.833,540.5 259.5,540.5C 259.5,528.833 259.5,517.167 259.5,505.5C 263.833,505.5 268.167,505.5 272.5,505.5C 272.5,513.833 272.5,522.167 272.5,530.5 Z"/></g>
<g><path style="opacity:1" fill="#474846" d="M 135.5,506.5 C 128.5,506.5 121.5,506.5 114.5,506.5C 114.5,517.833 114.5,529.167 114.5,540.5C 121.167,540.5 127.833,540.5 134.5,540.5C 127.687,541.491 120.687,541.825 113.5,541.5C 113.5,529.5 113.5,517.5 113.5,505.5C 121.019,505.175 128.352,505.508 135.5,506.5 Z"/></g>
<g><path style="opacity:1" fill="#f9f9f7" d="M 133.5,516.5 C 135.959,517.874 136.959,520.04 136.5,523C 136.894,526.168 135.894,528.668 133.5,530.5C 131.167,530.5 128.833,530.5 126.5,530.5C 126.5,525.833 126.5,521.167 126.5,516.5C 128.833,516.5 131.167,516.5 133.5,516.5 Z"/></g>
<g><path style="opacity:1" fill="#11100e" d="M 378.5,506.5 C 387.036,507.832 390.203,512.832 388,521.5C 386.663,524.002 384.829,526.002 382.5,527.5C 384.131,529.22 385.297,531.22 386,533.5C 387.011,534.337 388.178,534.67 389.5,534.5C 389.833,536.5 390.167,538.5 390.5,540.5C 380.091,544.618 373.925,541.285 372,530.5C 370.644,529.62 369.144,529.286 367.5,529.5C 367.5,533.167 367.5,536.833 367.5,540.5C 363.5,540.5 359.5,540.5 355.5,540.5C 355.5,529.167 355.5,517.833 355.5,506.5C 363.167,506.5 370.833,506.5 378.5,506.5 Z"/></g>
<g><path style="opacity:1" fill="#efeeed" d="M 367.5,514.5 C 369.857,514.337 372.19,514.503 374.5,515C 377.167,517 377.167,519 374.5,521C 372.19,521.497 369.857,521.663 367.5,521.5C 367.5,519.167 367.5,516.833 367.5,514.5 Z"/></g>
<g><path style="opacity:1" fill="#5a5a59" d="M 378.5,506.5 C 370.833,506.5 363.167,506.5 355.5,506.5C 355.5,517.833 355.5,529.167 355.5,540.5C 359.5,540.5 363.5,540.5 367.5,540.5C 363.366,541.485 359.032,541.818 354.5,541.5C 354.5,529.5 354.5,517.5 354.5,505.5C 362.684,505.174 370.684,505.508 378.5,506.5 Z"/></g>
<g><path style="opacity:1" fill="#3b3b3a" d="M 311.5,506.5 C 303.833,506.5 296.167,506.5 288.5,506.5C 288.5,517.833 288.5,529.167 288.5,540.5C 296.167,540.5 303.833,540.5 311.5,540.5C 303.684,541.492 295.684,541.826 287.5,541.5C 287.5,529.5 287.5,517.5 287.5,505.5C 295.684,505.174 303.684,505.508 311.5,506.5 Z"/></g>
<g><path style="opacity:1" fill="#0f0f0e" d="M 242.5,506.5 C 246.167,506.5 249.833,506.5 253.5,506.5C 253.5,517.833 253.5,529.167 253.5,540.5C 249.833,540.5 246.167,540.5 242.5,540.5C 242.5,529.167 242.5,517.833 242.5,506.5 Z"/></g>
<g><path style="opacity:1" fill="#5f5e5d" d="M 349.5,515.5 C 349.5,512.5 349.5,509.5 349.5,506.5C 341.5,506.5 333.5,506.5 325.5,506.5C 325.5,517.833 325.5,529.167 325.5,540.5C 333.833,540.5 342.167,540.5 350.5,540.5C 350.5,537.5 350.5,534.5 350.5,531.5C 351.479,534.625 351.813,537.958 351.5,541.5C 342.5,541.5 333.5,541.5 324.5,541.5C 324.5,529.5 324.5,517.5 324.5,505.5C 333.167,505.5 341.833,505.5 350.5,505.5C 350.813,509.042 350.479,512.375 349.5,515.5 Z"/></g>
<g><path style="opacity:1" fill="#11110f" d="M 311.5,506.5 C 320.411,507.547 322.911,512.214 319,520.5C 318.097,521.701 316.931,522.535 315.5,523C 320.287,525.799 321.787,529.966 320,535.5C 318.326,539.089 315.493,540.755 311.5,540.5C 303.833,540.5 296.167,540.5 288.5,540.5C 288.5,529.167 288.5,517.833 288.5,506.5C 296.167,506.5 303.833,506.5 311.5,506.5 Z"/></g>
<g><path style="opacity:1" fill="#ececeb" d="M 306.5,527.5 C 308.71,528.455 309.043,529.955 307.5,532C 305.19,532.497 302.857,532.663 300.5,532.5C 300.5,530.833 300.5,529.167 300.5,527.5C 302.5,527.5 304.5,527.5 306.5,527.5 Z"/></g>
<g><path style="opacity:1" fill="#7b7a78" d="M 306.5,527.5 C 304.5,527.5 302.5,527.5 300.5,527.5C 300.5,529.167 300.5,530.833 300.5,532.5C 299.539,530.735 299.205,528.735 299.5,526.5C 302.059,526.198 304.393,526.532 306.5,527.5 Z"/></g>
<g><path style="opacity:1" fill="#b6b6b4" d="M 306.5,519.5 C 306.5,518.167 306.5,516.833 306.5,515.5C 304.5,515.5 302.5,515.5 300.5,515.5C 300.5,516.833 300.5,518.167 300.5,519.5C 299.549,518.081 299.216,516.415 299.5,514.5C 302.187,514.336 304.854,514.503 307.5,515C 308.916,516.915 308.582,518.415 306.5,519.5 Z"/></g>
<g><path style="opacity:1" fill="#fdfdfc" d="M 306.5,519.5 C 304.5,519.5 302.5,519.5 300.5,519.5C 300.5,518.167 300.5,516.833 300.5,515.5C 302.5,515.5 304.5,515.5 306.5,515.5C 306.5,516.833 306.5,518.167 306.5,519.5 Z"/></g>
<g><path style="opacity:1" fill="#0f0e0c" d="M 166.5,506.5 C 166.5,517.833 166.5,529.167 166.5,540.5C 162.5,540.5 158.5,540.5 154.5,540.5C 154.5,529.167 154.5,517.833 154.5,506.5C 158.5,506.5 162.5,506.5 166.5,506.5 Z"/></g>
<g><path style="opacity:1" fill="#0f0f0e" d="M 423.5,516.5 C 420.5,516.5 417.5,516.5 414.5,516.5C 413.508,524.316 413.174,532.316 413.5,540.5C 409.833,540.5 406.167,540.5 402.5,540.5C 402.826,532.316 402.492,524.316 401.5,516.5C 398.5,516.5 395.5,516.5 392.5,516.5C 392.5,513.167 392.5,509.833 392.5,506.5C 402.833,506.5 413.167,506.5 423.5,506.5C 423.5,509.833 423.5,513.167 423.5,516.5 Z"/></g>
<g><path style="opacity:1" fill="#100f0f" d="M 349.5,515.5 C 345.5,515.5 341.5,515.5 337.5,515.5C 337.5,516.5 337.5,517.5 337.5,518.5C 340.962,519.482 344.629,519.815 348.5,519.5C 348.5,522.167 348.5,524.833 348.5,527.5C 344.833,527.5 341.167,527.5 337.5,527.5C 337.5,528.833 337.5,530.167 337.5,531.5C 341.833,531.5 346.167,531.5 350.5,531.5C 350.5,534.5 350.5,537.5 350.5,540.5C 342.167,540.5 333.833,540.5 325.5,540.5C 325.5,529.167 325.5,517.833 325.5,506.5C 333.5,506.5 341.5,506.5 349.5,506.5C 349.5,509.5 349.5,512.5 349.5,515.5 Z"/></g>
<g><path style="opacity:1" fill="#0f0f0e" d="M 272.5,530.5 C 276.167,530.5 279.833,530.5 283.5,530.5C 283.5,533.833 283.5,537.167 283.5,540.5C 275.833,540.5 268.167,540.5 260.5,540.5C 260.5,529.167 260.5,517.833 260.5,506.5C 264.167,506.5 267.833,506.5 271.5,506.5C 271.174,514.684 271.508,522.684 272.5,530.5 Z"/></g>
<g><path style="opacity:1" fill="#666665" d="M 423.5,516.5 C 423.5,513.167 423.5,509.833 423.5,506.5C 413.167,506.5 402.833,506.5 392.5,506.5C 392.5,509.833 392.5,513.167 392.5,516.5C 391.518,513.038 391.185,509.371 391.5,505.5C 402.5,505.5 413.5,505.5 424.5,505.5C 424.815,509.371 424.482,513.038 423.5,516.5 Z"/></g>
<g><path style="opacity:1" fill="#575756" d="M 206.5,506.5 C 216.987,505.506 227.654,505.172 238.5,505.5C 238.815,509.371 238.482,513.038 237.5,516.5C 237.5,513.167 237.5,509.833 237.5,506.5C 227.167,506.5 216.833,506.5 206.5,506.5 Z"/></g>
<g><path style="opacity:1" fill="#4d4d4d" d="M 193.5,505.5 C 188.13,505.392 182.797,505.725 177.5,506.5C 177.918,505.778 178.584,505.278 179.5,505C 184.352,504.185 189.019,504.352 193.5,505.5 Z"/></g>
<g><path style="opacity:1" fill="#c4c4c4" d="M 1057.5,556.5 C 1058.17,566.833 1058.83,577.167 1059.5,587.5C 1059.22,588.289 1058.72,588.956 1058,589.5C 1057.5,578.505 1057.33,567.505 1057.5,556.5 Z"/></g>
<g><path style="opacity:1" fill="#202020" d="M 349.5,606.5 C 365.167,606.5 380.833,606.5 396.5,606.5C 381.833,607.167 367.167,607.833 352.5,608.5C 349.833,608.5 347.167,608.5 344.5,608.5C 342.473,608.662 340.473,608.495 338.5,608C 342.356,607.823 346.023,607.323 349.5,606.5 Z"/></g>
<g><path style="opacity:1" fill="#939393" d="M 396.5,606.5 C 399.385,606.194 402.052,606.527 404.5,607.5C 403.448,607.351 402.448,607.517 401.5,608C 403.058,608.21 404.391,608.71 405.5,609.5C 387.857,608.57 370.19,608.237 352.5,608.5C 367.167,607.833 381.833,607.167 396.5,606.5 Z"/></g>
<g><path style="opacity:1" fill="#fefefe" d="M 344.5,608.5 C 347.167,608.5 349.833,608.5 352.5,608.5C 370.19,608.237 387.857,608.57 405.5,609.5C 417.898,610.758 430.231,612.425 442.5,614.5C 534.733,633.816 607.733,681.816 661.5,758.5C 469.5,758.5 277.5,758.5 85.5,758.5C 141.893,679.206 218.226,630.539 314.5,612.5C 324.672,611.46 334.672,610.126 344.5,608.5 Z"/></g>
<g><path style="opacity:1" fill="#676767" d="M 404.5,607.5 C 416.797,608.035 428.797,609.702 440.5,612.5C 439.761,612.369 439.094,612.536 438.5,613C 440.058,613.21 441.391,613.71 442.5,614.5C 430.231,612.425 417.898,610.758 405.5,609.5C 404.391,608.71 403.058,608.21 401.5,608C 402.448,607.517 403.448,607.351 404.5,607.5 Z"/></g>
<g><path style="opacity:1" fill="#696969" d="M 349.5,606.5 C 346.023,607.323 342.356,607.823 338.5,608C 340.473,608.495 342.473,608.662 344.5,608.5C 334.672,610.126 324.672,611.46 314.5,612.5C 313.791,611.596 312.791,611.263 311.5,611.5C 323.886,608.732 336.553,607.065 349.5,606.5 Z"/></g>
<g><path style="opacity:1" fill="#383838" d="M 440.5,612.5 C 534.141,631.532 608.474,679.866 663.5,757.5C 662.833,757.833 662.167,758.167 661.5,758.5C 607.733,681.816 534.733,633.816 442.5,614.5C 441.391,613.71 440.058,613.21 438.5,613C 439.094,612.536 439.761,612.369 440.5,612.5 Z"/></g>
<g><path style="opacity:1" fill="#353535" d="M 311.5,611.5 C 312.791,611.263 313.791,611.596 314.5,612.5C 218.226,630.539 141.893,679.206 85.5,758.5C 84.8333,758.5 84.1667,758.5 83.5,758.5C 86.0845,754.067 88.9178,749.734 92,745.5C 148.165,673.16 221.331,628.493 311.5,611.5 Z"/></g>
</svg>
